HIERARCHY
ROOT ui
{
	 OFFSET 0 0 0
	 CHANNELS 3 XPosition YPosition Z Position
	 EndSite
	 {
	 OFFSET 0 -1 0
	 }
}
ROOT li
{
	 OFFSET 0 0 0
	 CHANNELS 3 XPosition YPosition Z Position
	 EndSite
	 {
	 OFFSET 0 -1 0
	 }
}
ROOT ul
{
	 OFFSET 0 0 0
	 CHANNELS 3 XPosition YPosition Z Position
	 EndSite
	 {
	 OFFSET 0 -1 0
	 }
}
ROOT ll
{
	 OFFSET 0 0 0
	 CHANNELS 3 XPosition YPosition Z Position
	 EndSite
	 {
	 OFFSET 0 -1 0
	 }
}
ROOT tt
{
	 OFFSET 0 0 0
	 CHANNELS 3 XPosition YPosition Z Position
	 EndSite
	 {
	 OFFSET 0 -1 0
	 }
}
ROOT tb
{
	 OFFSET 0 0 0
	 CHANNELS 3 XPosition YPosition Z Position
	 EndSite
	 {
	 OFFSET 0 -1 0
	 }
}
ROOT td
{
	 OFFSET 0 0 0
	 CHANNELS 3 XPosition YPosition Z Position
	 EndSite
	 {
	 OFFSET 0 -1 0
	 }
}
ROOT v
{
	 OFFSET 0 0 0
	 CHANNELS 3 XPosition YPosition Z Position
	 EndSite
	 {
	 OFFSET 0 -1 0
	 }
}
ROOT bn
{
	 OFFSET 0 0 0
	 CHANNELS 3 XPosition YPosition Z Position
	 EndSite
	 {
	 OFFSET 0 -1 0
	 }
}
MOTION
Frames: 13
Frame Time: 0.002
0.056538257598876956	-0.00235514497756958	0		0.496174560546875	-2.56004345703125	0		-0.8011323852539063	0.3878064880371094	0		-0.6555618896484375	-2.679123779296875	0		1.134971435546875	-0.931853271484375	0		3.03835791015625	-0.87329150390625	0		4.3896533203125	-0.8112069091796875	0		5.93854150390625	0.31329989624023435	0		-0.09273514556884765	5.9426494140625	0		
-0.025620832443237304	-0.0017069259881973267	0		0.46799832153320314	-2.5567265625	0		-0.872310546875	0.3843999938964844	0		-0.59275341796875	-2.67833935546875	0		1.1347984619140625	-0.9317134399414062	0		3.019234130859375	-0.8650628662109375	0		4.38948388671875	-0.8111079711914062	0		5.93838525390625	0.31337542724609374	0		-0.10788208770751953	5.93189599609375	0		
0.056254741668701175	-0.002043163061141968	0		0.48574114990234374	-2.572683349609375	0		-0.8724277954101562	0.3845712280273437	0		-0.6559203491210938	-2.6787919921875	0		1.128637939453125	-0.93553515625	0		3.063067626953125	-0.8702139892578125	0		4.3993330078125	-0.8140709838867187	0		5.94231494140625	0.3214229431152344	0		-0.1258999557495117	5.9351650390625	0		
-0.021808168411254884	0.0025884790420532227	0		0.471734375	-2.55244580078125	0		-0.862462158203125	0.39268438720703125	0		-0.5780697021484374	-2.682093505859375	0		1.1725159912109375	-0.938658447265625	0		3.03906298828125	-0.8539557495117187	0		4.4013671875	-0.7919876708984375	0		5.9422314453125	0.3214919128417969	0		-0.05582578277587891	5.9469033203125	0		
0.00210652494430542	-0.0013957560062408448	0		0.4716338195800781	-2.552292236328125	0		-0.867595458984375	0.3798894653320313	0		-0.664091796875	-2.668401611328125	0		1.1494471435546876	-0.937376220703125	0		3.066933837890625	-0.8630120239257812	0		4.39726025390625	-0.7978679809570313	0		5.93812744140625	0.3135843811035156	0		-0.05579338836669922	5.9470654296875	0		
0.0020660369396209716	-0.0012355040311813354	0		0.4975230102539063	-2.55729736328125	0		-0.8725995483398438	0.3850934753417969	0		-0.5912174072265625	-2.67567529296875	0		1.1723857421875	-0.9383735961914063	0		3.069947021484375	-0.8519175415039062	0		4.40528271484375	-0.7858214111328125	0		5.938091796875	0.31365298461914065	0		-0.07180865478515625	5.93632373046875	0		
0.002038111925125122	-0.0010771880149841309	0		0.4694755859375	-2.553975830078125	0		-0.8726217041015625	0.38526492309570315	0		-0.6812288208007813	-2.665959228515625	0		1.187294677734375	-0.9463241577148438	0		3.075863525390625	-0.8588417358398438	0		4.4052451171875	-0.7857261352539062	0		5.92906884765625	0.3137771911621094	0		-0.09171058654785157	5.94260498046875	0		
-0.025984037399291993	-7.50590980052948E-4	0		0.47142828369140627	-2.55183935546875	0		-0.86766943359375	0.3804024658203125	0		-0.6563638305664062	-2.677946533203125	0		1.1693076171875	-0.938075927734375	0		3.083852783203125	-0.8547796630859374	0		4.39618310546875	-0.7905762329101562	0		5.93299560546875	0.30482278442382815	0		-0.08965975952148438	5.94075	0		
0.009034605026245117	0.0061868767738342285	0		0.477412353515625	-2.54473095703125	0		-0.8526083984375	0.39347396850585936	0		-0.6513998413085937	-2.673816650390625	0		1.204264404296875	-0.93915478515625	0		3.1167861328125	-0.8598724975585937	0		4.39517529296875	-0.7864762573242188	0		5.93802490234375	0.3128620910644531	0		-0.0886138916015625	5.938896484375	0		
0.001962831974029541	-6.23187005519867E-4	0		0.5013069763183594	-2.551737548828125	0		-0.7876826782226563	0.38523294067382813	0		-0.5994091186523437	-2.664980712890625	0		1.2072476806640624	-0.9350419311523438	0		3.095832275390625	-0.84563720703125	0		4.40418701171875	-0.7784390258789062	0		5.932951171875	0.3049629821777344	0		-0.05551749801635742	5.946841796875	0		
-0.026074522018432616	-3.102869987487793E-4	0		0.4732511901855469	-2.5494306640625	0		-0.8677451782226563	0.3808753967285156	0		-0.5994791259765625	-2.664832763671875	0		1.2591483154296874	-0.943235595703125	0		3.07672314453125	-0.8554168090820312	0		4.4101103515625	-0.7833858642578125	0		5.9239169921875	0.3050874938964844	0		-0.055477527618408205	5.9479833984375	0		
-0.0021423590183258056	-0.003325265884399414	0		0.4991484680175781	-2.553463623046875	0		-0.7917850341796875	0.3815492858886719	0		-0.6286067504882813	-2.6725146484375	0		1.2191451416015624	-0.9338707885742188	0		3.0896767578125	-0.8533989868164062	0		4.4200361328125	-0.7863622436523438	0		5.928822265625	0.2971227722167969	0		-0.08560069274902343	5.9253017578125	0		
-0.02618271064758301	-5.413400009274483E-5	0		0.44410614013671873	-2.546006591796875	0		-0.8628203735351563	0.38511907958984376	0		-0.6646630859375	-2.66716259765625	0		1.22209423828125	-0.9307794189453125	0		3.109564697265625	-0.860432373046875	0		4.42403125	-0.7763092651367187	0		5.92876611328125	0.29718240356445313	0		-0.12354037475585937	5.93466015625	0		
